<?xml version="1.0" encoding="UTF-8"?>
<svg id="Layer_1" xmlns="http://www.w3.org/2000/svg" width="140.406mm" height="28.222mm" xmlns:xlink="http://www.w3.org/1999/xlink" version="1.1" viewBox="0 0 398 80">
  <!-- Generator: Adobe Illustrator 29.6.1, SVG Export Plug-In . SVG Version: 2.1.1 Build 9)  -->
  <defs>
    <style>
      .st0 {
        fill: none;
      }

      .st1 {
        fill: #0b051c;
      }

      .st2 {
        clip-path: url(#clippath);
      }
    </style>
    <clipPath id="clippath">
      <rect class="st0" width="398" height="80"/>
    </clipPath>
  </defs>
  <g class="st2">
    <path class="st1" d="M256.463,30.371c0,2.277.681,4.04,2.044,5.29,1.362,1.25,3.294,1.875,5.795,1.875.688,0,1.389-.052,2.1-.157s1.449-.269,2.212-.494l-1.1-5.211c-.24.06-.525.112-.854.157-.329.045-.629.068-.898.068-.824,0-1.423-.199-1.797-.596-.374-.396-.562-1.014-.562-1.853V6.091h-6.94v24.28ZM253.026,17.322h15.116v-5.256h-15.116v5.256ZM250.773,7.821c.734-.689,1.101-1.52,1.101-2.494s-.367-1.8-1.101-2.482c-.734-.681-1.625-1.022-2.673-1.022-1.033,0-1.916.341-2.65,1.022-.734.682-1.101,1.509-1.101,2.482s.367,1.805,1.101,2.494c.734.688,1.617,1.033,2.65,1.033,1.048,0,1.939-.345,2.673-1.033M251.582,12.066h-6.94v25.111h6.94V12.066ZM227.018,31.124c-.786-.621-1.389-1.486-1.808-2.594-.419-1.108-.629-2.404-.629-3.886,0-1.497.206-2.797.618-3.897.411-1.101,1.01-1.954,1.797-2.561.786-.606,1.74-.909,2.863-.909,1.153,0,2.119.314,2.898.943.778.629,1.366,1.494,1.763,2.594.397,1.101.595,2.378.595,3.83s-.202,2.737-.606,3.852c-.404,1.116-.996,1.988-1.775,2.617-.778.628-1.737.943-2.875.943-1.108,0-2.055-.311-2.841-.932M237.238,36.099c1.535-.988,2.751-2.445,3.65-4.369.898-1.924,1.347-4.279,1.347-7.064,0-2.875-.464-5.27-1.392-7.187-.929-1.917-2.16-3.35-3.695-4.302-1.535-.95-3.223-1.426-5.065-1.426-1.393,0-2.561.236-3.504.708-.943.471-1.707,1.059-2.291,1.763-.584.704-1.033,1.4-1.348,2.089h-.202V3.71h-6.94v33.467h6.828v-4.021h.314c.33.689.79,1.374,1.382,2.056.591.681,1.359,1.246,2.302,1.695.943.45,2.089.674,3.437.674,1.916,0,3.642-.494,5.177-1.482M213.417,7.821c.733-.689,1.1-1.52,1.1-2.494s-.367-1.8-1.1-2.482c-.734-.681-1.625-1.022-2.673-1.022-1.033,0-1.917.341-2.651,1.022-.734.682-1.1,1.509-1.1,2.482s.366,1.805,1.1,2.494c.734.688,1.618,1.033,2.651,1.033,1.048,0,1.939-.345,2.673-1.033M214.225,12.066h-6.94v25.111h6.94V12.066ZM188.22,19.905c.412-.764.977-1.352,1.696-1.764.719-.411,1.557-.617,2.516-.617,1.422,0,2.527.434,3.313,1.302.786.869,1.179,2.075,1.179,3.617v14.734h6.963v-15.97c0-1.976-.363-3.668-1.09-5.076-.726-1.407-1.74-2.489-3.043-3.246-1.303-.755-2.823-1.134-4.56-1.134-1.901,0-3.485.427-4.75,1.28-1.266.854-2.183,2.022-2.751,3.504h-.315V3.71h-6.716v33.467h6.941v-14.51c0-1.078.205-1.999.617-2.762M155.455,12.066l7.21,12.578-7.48,12.533h7.21l4.829-8.67,4.964,8.67h7.12l-7.457-12.533,7.278-12.578h-7.165l-4.74,8.804-4.559-8.804h-7.21ZM153.621,37.177v-5.84h-15.543v-8.198h14.33v-5.728h-14.33v-7.861h15.498V3.71h-22.551v33.467h22.596Z"/>
    <path class="st1" d="M281.941,77.177v-11.109c0-.797.178-1.503.536-2.119.357-.615.852-1.095,1.485-1.441.633-.345,1.342-.519,2.127-.519.387,0,.806.027,1.257.08.451.052.806.12,1.063.202v-4.817c-.246-.07-.524-.12-.834-.149-.311-.029-.607-.044-.888-.044-1.09,0-2.057.314-2.901.94-.843.627-1.447,1.55-1.81,2.769h-.211v-3.445h-5.256v19.652h5.432ZM273.361,54.202c.574-.538.861-1.189.861-1.951s-.287-1.409-.861-1.942c-.574-.533-1.272-.8-2.092-.8-.808,0-1.5.267-2.074.8-.574.533-.861,1.181-.861,1.942s.287,1.413.861,1.951c.574.54,1.266.809,2.074.809.82,0,1.518-.269,2.092-.809M273.994,57.525h-5.432v19.652h5.432v-19.652ZM254.592,73.204c-.539-.386-.809-.949-.809-1.687,0-.516.132-.946.396-1.292.263-.346.635-.621,1.116-.826.48-.205,1.043-.355,1.687-.449.293-.046.621-.096.985-.149.363-.053.726-.114,1.09-.185.363-.07.694-.152.993-.246.299-.093.53-.193.694-.298v2.091c0,.68-.173,1.292-.518,1.837-.346.545-.827.979-1.442,1.301-.615.322-1.321.483-2.118.483-.844,0-1.535-.193-2.074-.58M257.668,77.151c.738-.264,1.371-.627,1.898-1.09.528-.463.95-1.005,1.266-1.626h.141v2.742h5.185v-13.254c0-1.16-.228-2.162-.685-3.006s-1.076-1.532-1.855-2.065c-.779-.533-1.667-.929-2.663-1.187-.996-.257-2.039-.386-3.129-.386-1.57,0-2.95.237-4.139.711-1.19.475-2.16,1.149-2.91,2.022-.75.873-1.254,1.907-1.511,3.102l5.045.405c.187-.656.571-1.198,1.151-1.626.58-.428,1.356-.642,2.329-.642.926,0,1.644.223,2.153.668.51.446.765,1.072.765,1.881v.088c0,.41-.161.724-.483.94-.323.217-.83.378-1.521.484-.692.105-1.606.211-2.742.316-.984.094-1.916.258-2.795.492-.879.235-1.664.58-2.355,1.037-.692.457-1.237,1.052-1.635,1.785-.399.732-.598,1.649-.598,2.751,0,1.289.281,2.367.844,3.234.562.867,1.339,1.521,2.329,1.96s2.106.659,3.349.659c.972,0,1.828-.132,2.566-.395M236.894,77.177v-9.949h10.67v-4.483h-10.67v-7.189h11.813v-4.57h-17.332v26.191h5.519ZM218.075,76.36c1.471-.78,2.617-1.852,3.437-3.217.82-1.365,1.23-2.933,1.23-4.702,0-1.676-.357-3.158-1.072-4.448-.715-1.289-1.69-2.302-2.927-3.041-1.236-.738-2.639-1.107-4.209-1.107-1.149,0-2.189.211-3.121.633-.931.422-1.626.955-2.083,1.599h-.14l.65-6.556h11.444v-4.535h-16.014l-1.231,13.816,4.94.879c.398-.539.955-.967,1.67-1.283.714-.317,1.459-.475,2.232-.475.879,0,1.655.196,2.329.589s1.204.94,1.591,1.644c.387.703.58,1.511.58,2.425s-.187,1.714-.562,2.4c-.376.685-.894,1.221-1.556,1.608-.662.387-1.427.58-2.294.58-1.113,0-2.065-.313-2.856-.94s-1.211-1.444-1.257-2.452h-5.379c.035,1.5.466,2.836,1.292,4.007.826,1.172,1.948,2.089,3.366,2.751,1.418.662,3.029.994,4.834.994,1.934,0,3.636-.39,5.106-1.169M201.862,77.177v-4.518h-11.004v-.193l3.832-3.744c1.805-1.629,3.199-3.032,4.184-4.21.984-1.178,1.67-2.244,2.056-3.199.387-.955.581-1.925.581-2.909,0-1.524-.387-2.868-1.161-4.035-.773-1.166-1.857-2.08-3.252-2.742-1.394-.662-3.023-.993-4.886-.993-1.828,0-3.443.346-4.843,1.037-1.401.692-2.49,1.667-3.27,2.927-.779,1.26-1.169,2.751-1.169,4.474h5.274c0-.844.161-1.568.483-2.171.322-.604.783-1.067,1.38-1.389.598-.322,1.295-.483,2.092-.483.773,0,1.459.152,2.057.457.597.304,1.072.732,1.423,1.283.352.551.528,1.213.528,1.986,0,.692-.141,1.333-.422,1.925-.281.592-.692,1.195-1.231,1.81-.539.616-1.207,1.304-2.003,2.066l-9.317,8.648v3.973h18.668ZM168.401,71.93c-.738-.686-1.298-1.69-1.679-3.015-.381-1.324-.571-2.929-.571-4.816,0-2.836.428-5.03,1.283-6.583.855-1.553,2.074-2.329,3.656-2.329,1.067,0,1.966.349,2.699,1.046.732.697,1.289,1.708,1.669,3.032.381,1.324.572,2.935.572,4.834,0,1.887-.191,3.492-.572,4.816-.38,1.325-.937,2.329-1.669,3.015-.733.685-1.632,1.028-2.699,1.028-1.054,0-1.951-.343-2.689-1.028M176.812,75.938c1.576-1.061,2.78-2.59,3.612-4.588s1.248-4.415,1.248-7.251-.419-5.256-1.256-7.26c-.838-2.004-2.046-3.539-3.622-4.605-1.576-1.067-3.477-1.6-5.704-1.6-2.215,0-4.11.533-5.686,1.6-1.576,1.066-2.786,2.604-3.63,4.614-.844,2.01-1.266,4.427-1.266,7.251s.419,5.253,1.257,7.251c.838,1.998,2.045,3.527,3.621,4.588,1.576,1.06,3.478,1.591,5.704,1.591,2.239,0,4.146-.531,5.722-1.591M159.197,77.177v-4.518h-11.004v-.193l3.832-3.744c1.805-1.629,3.199-3.032,4.184-4.21.984-1.178,1.67-2.244,2.056-3.199.387-.955.58-1.925.58-2.909,0-1.524-.386-2.868-1.16-4.035-.773-1.166-1.857-2.08-3.252-2.742-1.394-.662-3.023-.993-4.886-.993-1.829,0-3.443.346-4.843,1.037-1.401.692-2.49,1.667-3.27,2.927-.779,1.26-1.169,2.751-1.169,4.474h5.274c0-.844.161-1.568.483-2.171.322-.604.782-1.067,1.38-1.389.598-.322,1.295-.483,2.092-.483.773,0,1.459.152,2.057.457.597.304,1.072.732,1.423,1.283.352.551.528,1.213.528,1.986,0,.692-.141,1.333-.422,1.925-.281.592-.692,1.195-1.231,1.81-.539.616-1.207,1.304-2.004,2.066l-9.316,8.648v3.973h18.668Z"/>
    <path class="st1" d="M120.463,68.123c-.562-.451-.967-1.038-1.215-1.761s-.372-1.496-.372-2.319.154-1.555.463-2.199c.309-.644.754-1.15,1.337-1.516.582-.367,1.284-.55,2.104-.55.912,0,1.643.149,2.195.446.552.297.952.76,1.201,1.389.248.63.372,1.44.372,2.43,0,1.041-.122,1.915-.365,2.623-.243.709-.643,1.241-1.2,1.598s-1.302.535-2.233.535c-.963,0-1.725-.225-2.287-.676M126.358,77.969c.937-.139,1.79-.315,2.56-.528.77-.213,1.382-.433,1.838-.661l-.926-2.749c-.345.128-.839.282-1.482.46-.643.179-1.365.332-2.165.461-.8.129-1.62.193-2.461.193-1.833,0-3.451-.238-4.854-.713-1.403-.476-2.58-1.177-3.532-2.103-.952-.926-1.674-2.066-2.165-3.418-.492-1.353-.737-2.901-.737-4.645,0-1.635.235-3.131.706-4.488s1.17-2.527,2.097-3.508c.927-.98,2.074-1.741,3.441-2.281,1.367-.54,2.952-.81,4.755-.81,1.185,0,2.297.129,3.335.387,1.038.257,1.983.641,2.834,1.151.85.511,1.58,1.145,2.187,1.903.608.758,1.079,1.635,1.413,2.63.335.996.502,2.108.502,3.337,0,1.486-.082,2.707-.243,3.663-.163.957-.423,1.665-.783,2.126-.36.46-.838.691-1.436.691-.476,0-.845-.169-1.109-.506-.263-.336-.395-.772-.395-1.307v-10.285h-3.069v1.204h-.167c-.223-.357-.696-.706-1.42-1.048-.724-.342-1.598-.513-2.621-.513-1.266,0-2.421.308-3.464.922s-1.874,1.489-2.491,2.623c-.618,1.135-.927,2.47-.927,4.005,0,1.526.263,2.869.79,4.028.526,1.159,1.289,2.068,2.286,2.727.998.659,2.19.988,3.578.988.78,0,1.486-.104,2.12-.312.632-.208,1.162-.483,1.587-.825.426-.341.719-.715.881-1.122h.122c.081.516.286.951.615,1.308.329.357.752.627,1.269.81.516.184,1.083.275,1.701.275,1.266,0,2.317-.25,3.153-.75.835-.501,1.496-1.184,1.982-2.051.487-.867.831-1.856,1.034-2.965.202-1.11.303-2.274.303-3.493,0-1.773-.298-3.426-.896-4.956-.598-1.531-1.471-2.869-2.621-4.013-1.149-1.145-2.562-2.036-4.238-2.675-1.677-.639-3.588-.959-5.736-.959-2.289,0-4.332.33-6.13.988-1.798.659-3.319,1.611-4.565,2.854s-2.193,2.732-2.841,4.466c-.649,1.734-.973,3.676-.973,5.826,0,2.199.322,4.159.965,5.878.643,1.719,1.585,3.173,2.826,4.362,1.241,1.189,2.76,2.09,4.558,2.705,1.797.614,3.856.921,6.176.921.951,0,1.896-.069,2.833-.208"/>
  </g>
</svg>