<?xml version="1.0" encoding="UTF-8"?>
<svg id="Layer_1" xmlns="http://www.w3.org/2000/svg" width="140.406mm" height="28.222mm" xmlns:xlink="http://www.w3.org/1999/xlink" version="1.1" viewBox="0 0 398 80">
  <!-- Generator: Adobe Illustrator 29.6.1, SVG Export Plug-In . SVG Version: 2.1.1 Build 9)  -->
  <defs>
    <style>
      .st0 {
        fill: none;
      }

      .st1 {
        fill: #0b051c;
      }

      .st2 {
        clip-path: url(#clippath);
      }
    </style>
    <clipPath id="clippath">
      <rect class="st0" width="398" height="80"/>
    </clipPath>
  </defs>
  <g class="st2">
    <path class="st1" d="M232.653,30.371c0,2.276.681,4.04,2.044,5.29,1.362,1.25,3.294,1.875,5.795,1.875.688,0,1.388-.052,2.1-.157.711-.105,1.448-.27,2.212-.494l-1.101-5.211c-.239.06-.524.112-.853.157-.33.045-.629.067-.898.067-.824,0-1.423-.198-1.797-.595-.375-.396-.562-1.014-.562-1.853V6.091h-6.94v24.28ZM229.216,17.321h15.116v-5.256h-15.116v5.256ZM226.963,7.82c.733-.688,1.101-1.519,1.101-2.493s-.368-1.8-1.101-2.482c-.734-.681-1.625-1.022-2.673-1.022-1.033,0-1.917.341-2.65,1.022-.734.682-1.101,1.509-1.101,2.482s.367,1.805,1.101,2.493c.733.689,1.617,1.034,2.65,1.034,1.048,0,1.939-.345,2.673-1.034M227.772,12.065h-6.94v25.111h6.94V12.065ZM214.815,13.761c-1.819-1.34-4.316-2.01-7.49-2.01-2.142,0-4.01.314-5.604.943-1.595.629-2.834,1.528-3.718,2.696-.883,1.168-1.325,2.56-1.325,4.177,0,1.872.599,3.407,1.797,4.605,1.198,1.198,3.017,2.044,5.458,2.538l4.335.898c2.156.435,3.234,1.273,3.234,2.516,0,.734-.378,1.34-1.134,1.819-.756.48-1.741.719-2.953.719-1.244,0-2.262-.262-3.055-.786-.794-.524-1.303-1.295-1.527-2.313l-6.806.359c.329,2.381,1.478,4.267,3.448,5.66,1.968,1.393,4.615,2.089,7.94,2.089,2.171,0,4.095-.348,5.772-1.044,1.677-.697,2.995-1.663,3.953-2.898.958-1.235,1.438-2.684,1.438-4.346,0-1.812-.599-3.272-1.797-4.38s-3.018-1.909-5.458-2.403l-4.56-.899c-1.153-.239-1.965-.573-2.437-.999-.472-.427-.707-.94-.707-1.539,0-.748.363-1.348,1.089-1.797.726-.449,1.628-.674,2.707-.674,1.212,0,2.178.289,2.897.865.719.577,1.16,1.262,1.325,2.055l6.357-.381c-.3-2.306-1.359-4.129-3.179-5.47M193.04,7.82c.734-.688,1.101-1.519,1.101-2.493s-.367-1.8-1.101-2.482c-.734-.681-1.625-1.022-2.673-1.022-1.033,0-1.917.341-2.65,1.022-.734.682-1.101,1.509-1.101,2.482s.367,1.805,1.101,2.493c.733.689,1.617,1.034,2.65,1.034,1.048,0,1.939-.345,2.673-1.034M193.849,12.065h-6.94v25.111h6.94V12.065ZM153.017,3.71l11.545,33.467h9.119l11.523-33.467h-7.817l-8.108,25.426h-.315l-8.063-25.426h-7.884Z"/>
    <path class="st1" d="M267.219,77.177v-11.109c0-.797.178-1.503.536-2.119.357-.615.852-1.095,1.485-1.441.633-.345,1.342-.519,2.127-.519.387,0,.806.027,1.257.08.451.052.806.12,1.064.202v-4.817c-.247-.07-.525-.12-.835-.149-.311-.029-.607-.044-.888-.044-1.09,0-2.057.314-2.901.94-.843.627-1.447,1.55-1.81,2.769h-.211v-3.445h-5.256v19.652h5.432ZM258.639,54.202c.574-.538.861-1.189.861-1.951s-.287-1.409-.861-1.942c-.574-.533-1.272-.8-2.092-.8-.808,0-1.5.267-2.074.8-.574.533-.861,1.181-.861,1.942s.287,1.413.861,1.951c.574.54,1.266.809,2.074.809.82,0,1.518-.269,2.092-.809M259.272,57.525h-5.432v19.652h5.432v-19.652ZM239.87,73.204c-.539-.386-.809-.949-.809-1.687,0-.516.132-.946.396-1.292.263-.346.635-.621,1.116-.826.48-.205,1.043-.355,1.687-.449.293-.046.621-.096.985-.149.363-.053.726-.114,1.09-.185.363-.07.694-.152.993-.246.299-.093.53-.193.694-.298v2.091c0,.68-.173,1.292-.518,1.837-.346.545-.827.979-1.442,1.301-.615.322-1.321.483-2.118.483-.844,0-1.535-.193-2.074-.58M242.946,77.151c.738-.264,1.371-.627,1.898-1.09.528-.463.95-1.005,1.266-1.626h.141v2.742h5.185v-13.254c0-1.16-.228-2.162-.685-3.006s-1.076-1.532-1.855-2.065c-.779-.533-1.667-.929-2.663-1.187-.996-.257-2.039-.386-3.129-.386-1.57,0-2.95.237-4.139.711-1.19.475-2.16,1.149-2.91,2.022-.75.873-1.254,1.907-1.511,3.102l5.045.405c.187-.656.571-1.198,1.151-1.626.58-.428,1.356-.642,2.329-.642.926,0,1.644.223,2.153.668.51.446.765,1.072.765,1.881v.088c0,.41-.161.724-.483.94-.323.217-.83.378-1.521.484-.692.105-1.606.211-2.742.316-.984.094-1.916.258-2.795.492-.879.235-1.664.58-2.356,1.037-.691.457-1.236,1.052-1.634,1.785-.399.732-.598,1.649-.598,2.751,0,1.289.281,2.367.844,3.234.562.867,1.339,1.521,2.329,1.96s2.106.659,3.349.659c.972,0,1.828-.132,2.566-.395M222.172,77.177v-9.949h10.67v-4.483h-10.67v-7.189h11.813v-4.57h-17.332v26.191h5.519ZM203.353,76.36c1.471-.78,2.617-1.852,3.437-3.217.82-1.365,1.23-2.933,1.23-4.702,0-1.676-.357-3.158-1.072-4.448-.715-1.289-1.69-2.302-2.927-3.041-1.236-.738-2.639-1.107-4.209-1.107-1.149,0-2.189.211-3.121.633-.931.422-1.626.955-2.083,1.599h-.14l.65-6.556h11.444v-4.535h-16.014l-1.231,13.816,4.94.879c.398-.539.955-.967,1.67-1.283.714-.317,1.459-.475,2.232-.475.879,0,1.655.196,2.329.589s1.204.94,1.591,1.644c.387.703.58,1.511.58,2.425s-.187,1.714-.562,2.4c-.376.685-.894,1.221-1.556,1.608-.662.387-1.427.58-2.294.58-1.113,0-2.065-.313-2.856-.94s-1.211-1.444-1.257-2.452h-5.379c.035,1.5.466,2.836,1.292,4.007.826,1.172,1.948,2.089,3.366,2.751,1.418.662,3.029.994,4.834.994,1.934,0,3.636-.39,5.106-1.169M187.14,77.177v-4.518h-11.004v-.193l3.832-3.744c1.805-1.629,3.199-3.032,4.184-4.21.984-1.178,1.67-2.244,2.056-3.199.387-.955.581-1.925.581-2.909,0-1.524-.387-2.868-1.161-4.035-.773-1.166-1.857-2.08-3.252-2.742-1.394-.662-3.023-.993-4.886-.993-1.828,0-3.443.346-4.843,1.037-1.401.692-2.49,1.667-3.27,2.927-.779,1.26-1.169,2.751-1.169,4.474h5.274c0-.844.161-1.568.483-2.171.322-.604.783-1.067,1.38-1.389.598-.322,1.295-.483,2.092-.483.773,0,1.459.152,2.057.457.597.304,1.072.732,1.423,1.283.352.551.528,1.213.528,1.986,0,.692-.141,1.333-.422,1.925-.281.592-.692,1.195-1.231,1.81-.539.616-1.207,1.304-2.003,2.066l-9.317,8.648v3.973h18.668ZM153.679,71.93c-.738-.686-1.298-1.69-1.679-3.015-.381-1.324-.571-2.929-.571-4.816,0-2.836.427-5.03,1.283-6.583.855-1.553,2.074-2.329,3.656-2.329,1.067,0,1.966.349,2.699,1.046.732.697,1.289,1.708,1.669,3.032.381,1.324.572,2.935.572,4.834,0,1.887-.191,3.492-.572,4.816-.38,1.325-.937,2.329-1.669,3.015-.733.685-1.632,1.028-2.699,1.028-1.054,0-1.951-.343-2.689-1.028M162.09,75.938c1.576-1.061,2.78-2.59,3.612-4.588s1.248-4.415,1.248-7.251-.419-5.256-1.257-7.26c-.837-2.004-2.045-3.539-3.621-4.605-1.576-1.067-3.477-1.6-5.704-1.6-2.215,0-4.11.533-5.686,1.6-1.576,1.066-2.786,2.604-3.63,4.614-.844,2.01-1.266,4.427-1.266,7.251s.419,5.253,1.257,7.251c.838,1.998,2.045,3.527,3.621,4.588,1.576,1.06,3.478,1.591,5.704,1.591,2.238,0,4.146-.531,5.722-1.591M144.475,77.177v-4.518h-11.004v-.193l3.832-3.744c1.805-1.629,3.199-3.032,4.184-4.21.984-1.178,1.67-2.244,2.056-3.199.387-.955.58-1.925.58-2.909,0-1.524-.386-2.868-1.16-4.035-.773-1.166-1.857-2.08-3.252-2.742-1.394-.662-3.023-.993-4.886-.993-1.829,0-3.443.346-4.843,1.037-1.401.692-2.49,1.667-3.27,2.927-.779,1.26-1.169,2.751-1.169,4.474h5.274c0-.844.161-1.568.483-2.171.322-.604.782-1.067,1.38-1.389.598-.322,1.295-.483,2.092-.483.773,0,1.459.152,2.057.457.597.304,1.072.732,1.423,1.283.352.551.528,1.213.528,1.986,0,.692-.141,1.333-.422,1.925-.281.592-.692,1.195-1.231,1.81-.539.616-1.207,1.304-2.004,2.066l-9.316,8.648v3.973h18.668Z"/>
  </g>
</svg>