<?xml version="1.0" encoding="UTF-8"?>
<svg id="Layer_1" xmlns="http://www.w3.org/2000/svg" width="140.406mm" height="28.222mm" xmlns:xlink="http://www.w3.org/1999/xlink" version="1.1" viewBox="0 0 398 80">
  <!-- Generator: Adobe Illustrator 29.6.1, SVG Export Plug-In . SVG Version: 2.1.1 Build 9)  -->
  <defs>
    <style>
      .st0 {
        fill: none;
      }

      .st1 {
        fill: #0b051c;
      }

      .st2 {
        clip-path: url(#clippath);
      }
    </style>
    <clipPath id="clippath">
      <rect class="st0" width="398" height="80"/>
    </clipPath>
  </defs>
  <g class="st2">
    <path class="st1" d="M251.134,36.717c1.572-.637,2.856-1.528,3.852-2.673.996-1.146,1.651-2.49,1.965-4.032l-6.424-.427c-.224.614-.565,1.138-1.021,1.572-.457.435-1,.764-1.629.989-.629.224-1.333.337-2.111.337-1.123,0-2.115-.259-2.976-.775-.862-.517-1.532-1.258-2.011-2.224-.479-.966-.718-2.13-.718-3.493v-3.032c0-1.168.209-2.201.629-3.099.419-.899,1.022-1.61,1.808-2.134.786-.524,1.748-.786,2.886-.786s2.092.258,2.864.775c.771.516,1.351,1.246,1.74,2.189.39.944.584,2.052.584,3.325l3.235-1.123h-17.834v4.29h21.203v-1.887c0-2.141-.3-4.009-.899-5.604-.599-1.595-1.437-2.92-2.515-3.976-1.078-1.055-2.336-1.849-3.774-2.38-1.437-.532-2.987-.798-4.649-.798-2.456,0-4.593.547-6.413,1.64-1.819,1.093-3.227,2.613-4.222,4.559-.996,1.947-1.494,4.208-1.494,6.784,0,2.65.498,4.945,1.494,6.884.995,1.939,2.429,3.433,4.301,4.481,1.872,1.048,4.095,1.572,6.671,1.572,2.066,0,3.886-.318,5.458-.954M215.911,31.112c-.786-.628-1.381-1.501-1.786-2.616-.404-1.116-.606-2.4-.606-3.852s.202-2.729.606-3.83c.405-1.1.996-1.965,1.775-2.594.778-.629,1.737-.943,2.875-.943,1.123,0,2.081.303,2.875.909.793.607,1.392,1.46,1.797,2.561.404,1.1.606,2.4.606,3.897,0,1.482-.206,2.778-.618,3.885-.412,1.109-1.01,1.974-1.797,2.595-.786.621-1.74.932-2.863.932s-2.078-.315-2.864-.944M220.021,36.907c.936-.449,1.703-1.014,2.303-1.695.598-.682,1.055-1.367,1.37-2.056h.314v4.021h6.851V3.71h-6.963v12.601h-.202c-.3-.689-.742-1.385-1.326-2.089-.584-.704-1.347-1.292-2.291-1.763-.943-.472-2.119-.708-3.526-.708-1.827,0-3.512.476-5.054,1.426-1.542.952-2.777,2.385-3.706,4.302-.928,1.917-1.392,4.312-1.392,7.187,0,2.785.449,5.14,1.347,7.064.899,1.924,2.119,3.381,3.662,4.369,1.542.988,3.271,1.482,5.188,1.482,1.348,0,2.489-.224,3.425-.674M189.273,32.101c-.689-.494-1.034-1.213-1.034-2.156,0-.659.169-1.209.506-1.651.337-.442.812-.794,1.426-1.056.614-.262,1.333-.453,2.156-.573.374-.059.794-.123,1.258-.191.464-.067.928-.146,1.393-.236.464-.089.887-.194,1.269-.314.382-.12.677-.247.887-.382v2.673c0,.869-.221,1.651-.663,2.347-.442.696-1.055,1.251-1.841,1.662-.787.412-1.689.618-2.707.618-1.078,0-1.962-.247-2.65-.741M193.203,37.143c.944-.337,1.752-.801,2.426-1.392.674-.592,1.213-1.284,1.617-2.078h.18v3.504h6.626v-16.936c0-1.482-.292-2.762-.876-3.84-.584-1.079-1.374-1.958-2.37-2.64-.996-.681-2.13-1.186-3.403-1.516-1.272-.329-2.605-.494-3.998-.494-2.006,0-3.77.303-5.289.91-1.52.606-2.759,1.468-3.717,2.583-.959,1.116-1.603,2.437-1.932,3.964l6.446.517c.24-.839.73-1.531,1.471-2.078.742-.546,1.733-.82,2.976-.82,1.183,0,2.101.285,2.752.854s.977,1.37.977,2.403v.112c0,.525-.206.925-.618,1.202-.412.277-1.059.483-1.943.618-.883.135-2.051.269-3.503.404-1.258.12-2.449.33-3.572.629-1.123.3-2.126.741-3.01,1.325-.883.584-1.579,1.344-2.088,2.28-.51.936-.764,2.108-.764,3.515,0,1.648.359,3.025,1.078,4.133.719,1.108,1.711,1.943,2.976,2.504,1.265.562,2.692.843,4.279.843,1.243,0,2.336-.169,3.279-.506M173.209,37.177v-14.195c0-1.018.228-1.921.685-2.707.457-.786,1.089-1.4,1.898-1.842.808-.441,1.714-.662,2.718-.662.494,0,1.029.033,1.606.101.576.067,1.029.153,1.359.258v-6.154c-.315-.09-.671-.154-1.067-.191-.397-.037-.775-.056-1.135-.056-1.392,0-2.628.4-3.706,1.201-1.078.802-1.849,1.981-2.313,3.538h-.27v-4.402h-6.716v25.111h6.941ZM151.043,9.55v27.627h6.985V9.55h10.243V3.71h-27.493v5.84h10.265Z"/>
    <path class="st1" d="M281.941,77.177v-11.109c0-.797.178-1.503.536-2.119.357-.615.852-1.095,1.485-1.441.633-.345,1.342-.519,2.127-.519.387,0,.806.027,1.257.08.451.052.806.12,1.063.202v-4.817c-.246-.07-.524-.12-.834-.149-.311-.029-.607-.044-.888-.044-1.09,0-2.057.314-2.901.94-.843.627-1.447,1.55-1.81,2.769h-.211v-3.445h-5.256v19.652h5.432ZM273.361,54.202c.574-.538.861-1.189.861-1.951s-.287-1.409-.861-1.942c-.574-.533-1.272-.8-2.092-.8-.808,0-1.5.267-2.074.8-.574.533-.861,1.181-.861,1.942s.287,1.413.861,1.951c.574.54,1.266.809,2.074.809.82,0,1.518-.269,2.092-.809M273.994,57.525h-5.432v19.652h5.432v-19.652ZM254.592,73.204c-.539-.386-.809-.949-.809-1.687,0-.516.132-.946.396-1.292.263-.346.635-.621,1.116-.826.48-.205,1.043-.355,1.687-.449.293-.046.621-.096.985-.149.363-.053.726-.114,1.09-.185.363-.07.694-.152.993-.246.299-.093.53-.193.694-.298v2.091c0,.68-.173,1.292-.518,1.837-.346.545-.827.979-1.442,1.301-.615.322-1.321.483-2.118.483-.844,0-1.535-.193-2.074-.58M257.668,77.151c.738-.264,1.371-.627,1.898-1.09.528-.463.95-1.005,1.266-1.626h.141v2.742h5.185v-13.254c0-1.16-.228-2.162-.685-3.006s-1.076-1.532-1.855-2.065c-.779-.533-1.667-.929-2.663-1.187-.996-.257-2.039-.386-3.129-.386-1.57,0-2.95.237-4.139.711-1.19.475-2.16,1.149-2.91,2.022-.75.873-1.254,1.907-1.511,3.102l5.045.405c.187-.656.571-1.198,1.151-1.626.58-.428,1.356-.642,2.329-.642.926,0,1.644.223,2.153.668.51.446.765,1.072.765,1.881v.088c0,.41-.161.724-.483.94-.323.217-.83.378-1.521.484-.692.105-1.606.211-2.742.316-.984.094-1.916.258-2.795.492-.879.235-1.664.58-2.355,1.037-.692.457-1.237,1.052-1.635,1.785-.399.732-.598,1.649-.598,2.751,0,1.289.281,2.367.844,3.234.562.867,1.339,1.521,2.329,1.96s2.106.659,3.349.659c.972,0,1.828-.132,2.566-.395M236.894,77.177v-9.949h10.67v-4.483h-10.67v-7.189h11.813v-4.57h-17.332v26.191h5.519ZM218.075,76.36c1.471-.78,2.617-1.852,3.437-3.217.82-1.365,1.23-2.933,1.23-4.702,0-1.676-.357-3.158-1.072-4.448-.715-1.289-1.69-2.302-2.927-3.041-1.236-.738-2.639-1.107-4.209-1.107-1.149,0-2.189.211-3.121.633-.931.422-1.626.955-2.083,1.599h-.14l.65-6.556h11.444v-4.535h-16.014l-1.231,13.816,4.94.879c.398-.539.955-.967,1.67-1.283.714-.317,1.459-.475,2.232-.475.879,0,1.655.196,2.329.589s1.204.94,1.591,1.644c.387.703.58,1.511.58,2.425s-.187,1.714-.562,2.4c-.376.685-.894,1.221-1.556,1.608-.662.387-1.427.58-2.294.58-1.113,0-2.065-.313-2.856-.94s-1.211-1.444-1.257-2.452h-5.379c.035,1.5.466,2.836,1.292,4.007.826,1.172,1.948,2.089,3.366,2.751,1.418.662,3.029.994,4.834.994,1.934,0,3.636-.39,5.106-1.169M201.862,77.177v-4.518h-11.004v-.193l3.832-3.744c1.805-1.629,3.199-3.032,4.184-4.21.984-1.178,1.67-2.244,2.056-3.199.387-.955.581-1.925.581-2.909,0-1.524-.387-2.868-1.161-4.035-.773-1.166-1.857-2.08-3.252-2.742-1.394-.662-3.023-.993-4.886-.993-1.828,0-3.443.346-4.843,1.037-1.401.692-2.49,1.667-3.27,2.927-.779,1.26-1.169,2.751-1.169,4.474h5.274c0-.844.161-1.568.483-2.171.322-.604.783-1.067,1.38-1.389.598-.322,1.295-.483,2.092-.483.773,0,1.459.152,2.057.457.597.304,1.072.732,1.423,1.283.352.551.528,1.213.528,1.986,0,.692-.141,1.333-.422,1.925-.281.592-.692,1.195-1.231,1.81-.539.616-1.207,1.304-2.003,2.066l-9.317,8.648v3.973h18.668ZM168.401,71.93c-.738-.686-1.298-1.69-1.679-3.015-.381-1.324-.571-2.929-.571-4.816,0-2.836.428-5.03,1.283-6.583.855-1.553,2.074-2.329,3.656-2.329,1.067,0,1.966.349,2.699,1.046.732.697,1.289,1.708,1.669,3.032.381,1.324.572,2.935.572,4.834,0,1.887-.191,3.492-.572,4.816-.38,1.325-.937,2.329-1.669,3.015-.733.685-1.632,1.028-2.699,1.028-1.054,0-1.951-.343-2.689-1.028M176.812,75.938c1.576-1.061,2.78-2.59,3.612-4.588s1.248-4.415,1.248-7.251-.419-5.256-1.256-7.26c-.838-2.004-2.046-3.539-3.622-4.605-1.576-1.067-3.477-1.6-5.704-1.6-2.215,0-4.11.533-5.686,1.6-1.576,1.066-2.786,2.604-3.63,4.614-.844,2.01-1.266,4.427-1.266,7.251s.419,5.253,1.257,7.251c.838,1.998,2.045,3.527,3.621,4.588,1.576,1.06,3.478,1.591,5.704,1.591,2.239,0,4.146-.531,5.722-1.591M159.197,77.177v-4.518h-11.004v-.193l3.832-3.744c1.805-1.629,3.199-3.032,4.184-4.21.984-1.178,1.67-2.244,2.056-3.199.387-.955.58-1.925.58-2.909,0-1.524-.386-2.868-1.16-4.035-.773-1.166-1.857-2.08-3.252-2.742-1.394-.662-3.023-.993-4.886-.993-1.829,0-3.443.346-4.843,1.037-1.401.692-2.49,1.667-3.27,2.927-.779,1.26-1.169,2.751-1.169,4.474h5.274c0-.844.161-1.568.483-2.171.322-.604.782-1.067,1.38-1.389.598-.322,1.295-.483,2.092-.483.773,0,1.459.152,2.057.457.597.304,1.072.732,1.423,1.283.352.551.528,1.213.528,1.986,0,.692-.141,1.333-.422,1.925-.281.592-.692,1.195-1.231,1.81-.539.616-1.207,1.304-2.004,2.066l-9.316,8.648v3.973h18.668Z"/>
    <path class="st1" d="M120.463,68.123c-.562-.451-.967-1.038-1.215-1.761s-.372-1.496-.372-2.319.154-1.555.463-2.199c.309-.644.754-1.15,1.337-1.516.582-.367,1.284-.55,2.104-.55.912,0,1.643.149,2.195.446.552.297.952.76,1.201,1.389.248.63.372,1.44.372,2.43,0,1.041-.122,1.915-.365,2.623-.243.709-.643,1.241-1.2,1.598s-1.302.535-2.233.535c-.963,0-1.725-.225-2.287-.676M126.358,77.969c.937-.139,1.79-.315,2.56-.528.77-.213,1.382-.433,1.838-.661l-.926-2.749c-.345.128-.839.282-1.482.46-.643.179-1.365.332-2.165.461-.8.129-1.62.193-2.461.193-1.833,0-3.451-.238-4.854-.713-1.403-.476-2.58-1.177-3.532-2.103-.952-.926-1.674-2.066-2.165-3.418-.492-1.353-.737-2.901-.737-4.645,0-1.635.235-3.131.706-4.488s1.17-2.527,2.097-3.508c.927-.98,2.074-1.741,3.441-2.281,1.367-.54,2.952-.81,4.755-.81,1.185,0,2.297.129,3.335.387,1.038.257,1.983.641,2.834,1.151.85.511,1.58,1.145,2.187,1.903.608.758,1.079,1.635,1.413,2.63.335.996.502,2.108.502,3.337,0,1.486-.082,2.707-.243,3.663-.163.957-.423,1.665-.783,2.126-.36.46-.838.691-1.436.691-.476,0-.845-.169-1.109-.506-.263-.336-.395-.772-.395-1.307v-10.285h-3.069v1.204h-.167c-.223-.357-.696-.706-1.42-1.048-.724-.342-1.598-.513-2.621-.513-1.266,0-2.421.308-3.464.922s-1.874,1.489-2.491,2.623c-.618,1.135-.927,2.47-.927,4.005,0,1.526.263,2.869.79,4.028.526,1.159,1.289,2.068,2.286,2.727.998.659,2.19.988,3.578.988.78,0,1.486-.104,2.12-.312.632-.208,1.162-.483,1.587-.825.426-.341.719-.715.881-1.122h.122c.081.516.286.951.615,1.308.329.357.752.627,1.269.81.516.184,1.083.275,1.701.275,1.266,0,2.317-.25,3.153-.75.835-.501,1.496-1.184,1.982-2.051.487-.867.831-1.856,1.034-2.965.202-1.11.303-2.274.303-3.493,0-1.773-.298-3.426-.896-4.956-.598-1.531-1.471-2.869-2.621-4.013-1.149-1.145-2.562-2.036-4.238-2.675-1.677-.639-3.588-.959-5.736-.959-2.289,0-4.332.33-6.13.988-1.798.659-3.319,1.611-4.565,2.854s-2.193,2.732-2.841,4.466c-.649,1.734-.973,3.676-.973,5.826,0,2.199.322,4.159.965,5.878.643,1.719,1.585,3.173,2.826,4.362,1.241,1.189,2.76,2.09,4.558,2.705,1.797.614,3.856.921,6.176.921.951,0,1.896-.069,2.833-.208"/>
  </g>
</svg>