<?xml version="1.0" encoding="UTF-8"?>
<svg id="Layer_1" xmlns="http://www.w3.org/2000/svg" width="381.74" height="97.716" xmlns:xlink="http://www.w3.org/1999/xlink" version="1.1" viewBox="0 0 381.74 97.716">
  <!-- Generator: Adobe Illustrator 29.5.0, SVG Export Plug-In . SVG Version: 2.1.0 Build 137)  -->
  <defs>
    <style>
      .st0 {
        fill: none;
      }

      .st1 {
        fill: #fff;
      }

      .st2 {
        fill: #cecdd2;
      }

      .st3 {
        clip-path: url(#clippath);
      }
    </style>
    <clipPath id="clippath">
      <rect class="st0" y="0" width="381.74" height="97.716"/>
    </clipPath>
  </defs>
  <g class="st3">
    <path class="st1" d="M367.229,24.661h-1.718v18.502h1.718v-8.908l1.507,8.908h1.771l-1.692-9.357,1.797-9.145h-1.771l-1.612,8.828v-8.828ZM363.079,24.661h-1.718v18.502h3.436v-1.533h-1.718v-16.969ZM45.886,18.892c1.103-4.505,2.162-11.135,4.909-17.766h-7.006c.06.25.057.625.053,1.063-.045,5.192-3.246,20.706-5.115,27.024h-.188c-2.815-7.069-6.214-19.017-7.97-25.648h-6.006c-2.698,8.133-7.192,21.269-9.106,25.648h-.188c-1.271-4.942-2.652-11.51-3.976-17.453-.784-3.378-1.136-6.068-1.409-10.634H0c3.871,15.263,6.88,28.775,9.767,42.037h5.443c2.433-6.443,7.238-19.392,10.369-26.961h.125c1.713,4.441,7.367,23.208,8.585,26.961h6.068c2.021-9.321,3.648-16.64,5.529-24.271M64.837,43.163c-1.003-6.881-1.079-12.574-1.029-18.204.065-7.506.319-15.075.645-23.833h-10.259c1.196,6.38,1.339,11.51,1.294,16.577l-.222,25.46h9.571ZM104.651,17.077c.051-5.817.343-10.571,1.015-15.951h-6.881c1.376,7.194,1.089,18.579,1.022,26.273-.007.751-.012,1.314-.014,1.564h-.187c-5.257-7.006-13.413-18.579-19.9-27.837h-9.384c1.751,7.256,1.31,14.763,1.198,27.587-.038,4.441-.141,9.008-1.127,14.45h5.881c-.166-2.502-.16-3.19-.151-4.254.078-8.883.091-17.64.169-26.523h.188c3.402,4.379,11.314,15.326,15.517,21.081,1.669,2.314,5.315,7.444,6.734,9.696h5.755c-.111-1.564-.099-2.94-.088-4.191.016-1.877.092-3.441.106-5.005l.147-16.89ZM120.315,38.471c-.278-4.066-.342-11.009-.307-15.013h1.689c3.065,0,5.317.063,9.439.813l2.113-5.63h-13.199c.091-3.253.27-9.446.424-12.761,1.627-.063,2.629-.125,5.006-.125,3.065,0,6.689.438,10.874,1.188.642-1.939,1.41-3.878,2.052-5.817h-28.024c1.195,6.38,1.338,11.51,1.294,16.577l-.222,25.46h25.835c.77-2.252,1.603-4.504,2.436-6.756-4.891,1.314-9.653,2.252-12.718,2.252-2.503,0-4.128-.125-6.692-.188M176.73,43.163c5.9-16.64,8.492-26.899,15.755-42.037h-6.881c-.802,5.943-8.621,27.336-11.182,34.092h-.188c-3.484-9.32-7.621-22.707-11.087-34.092h-10.197c6.568,14.45,11.258,28.9,15.898,42.037h7.882ZM206.592,43.163c-1.004-6.881-1.079-12.574-1.03-18.204.066-7.506.319-15.075.646-23.833h-10.259c1.195,6.38,1.338,11.51,1.294,16.577l-.222,25.46h9.571ZM219.746,10.009c.028-3.128,3.361-5.192,6.801-5.192,4.379,0,6.995,1.313,10.229,3.503.456-2.127.912-4.192,1.369-6.318C234.028.625,230.343,0,226.277,0c-7.444,0-13.93,4.879-13.996,12.448-.073,8.383,7.348,10.947,12.895,13.325,3.24,1.438,7.603,3.252,7.563,7.882-.036,4.191-3.617,5.88-7.683,5.88-5.567,0-8.24-2.002-11.469-4.754-.457,2.252-.915,4.504-1.372,6.693,4.425,1.877,8.358,2.815,12.987,2.815,7.757,0,15.185-5.317,15.258-13.637.051-5.88-4.112-9.133-8.659-11.323-4.174-2.001-12.097-4.504-12.055-9.32M255.233,43.163c-1.003-6.881-1.079-12.574-1.029-18.204.065-7.506.319-15.075.646-23.833h-10.26c1.196,6.38,1.339,11.51,1.295,16.577l-.223,25.46h9.571ZM290.398,22.144c-.102,11.761-3.279,17.391-10.661,17.391-7.444,0-10.522-5.63-10.42-17.391.103-11.76,3.279-17.327,10.723-17.327,7.382,0,10.461,5.567,10.358,17.327M300.157,22.144C300.28,8.069,294.22,0,280.082,0s-20.401,8.069-20.523,22.144c-.124,14.138,5.937,22.145,20.137,22.145s20.338-8.007,20.461-22.145M337.954,17.077c.051-5.817.343-10.571,1.015-15.951h-6.881c1.376,7.194,1.089,18.579,1.022,26.273-.007.751-.012,1.314-.014,1.564h-.187c-5.256-7.006-13.413-18.579-19.9-27.837h-9.384c1.751,7.256,1.31,14.763,1.198,27.587-.038,4.441-.141,9.008-1.127,14.45h5.881c-.166-2.502-.16-3.19-.151-4.254.078-8.883.091-17.64.169-26.523h.188c3.402,4.379,11.314,15.326,15.517,21.081,1.669,2.314,5.315,7.444,6.734,9.696h5.755c-.111-1.564-.099-2.94-.088-4.191.016-1.877.092-3.441.106-5.005l.147-16.89ZM352.401,26.141c.45,0,.635.211.635.634v5.63c0,.45-.212.688-.688.688h-.74v-6.952h.793ZM351.608,34.546h.767c.502,0,.687.212.687.687v5.815c0,.423-.185.635-.634.635h-.82v-7.137ZM352.666,24.661h-2.749v18.502h2.801c1.375,0,2.062-.687,2.062-2.062v-5.735c0-.926-.344-1.375-.978-1.613.608-.238.952-.713.952-1.691v-5.34c0-1.427-.608-2.061-2.088-2.061M352.071,12.173c0,.181-.072.271-.271.271h-.379v-4.443h.379c.199,0,.271.091.271.271v3.901ZM352.053,6.466c0,.181-.09.271-.271.271h-.361V2.402h.361c.181,0,.271.09.271.271v3.793ZM353.588,12.336v-4.064c0-.56-.198-.849-.65-.975.398-.163.632-.488.632-1.138v-3.649c0-.939-.469-1.408-1.409-1.408h-2.239v12.643h2.258c.939,0,1.408-.47,1.408-1.409M356.894,9.482l1.282-8.38h-1.445l-.542,5.761-.506-5.761h-1.589l1.282,8.489v4.154h1.518v-4.263ZM358.692,38.881h-1.48l.74-10.361.74,10.361ZM360.674,43.163l-1.533-18.529h-2.247l-1.559,18.529h1.586l.185-2.802h1.692l.211,2.802h1.665ZM363.794,17.6c0,.449-.212.634-.635.634h-.37c-.423,0-.608-.185-.608-.634V3.088c0-.449.185-.634.608-.634h.37c.423,0,.635.185.635.634v14.512ZM365.512,17.679V3.009c0-1.374-.688-2.061-2.062-2.061h-.925c-1.375,0-2.062.687-2.062,2.061v14.67c0,1.374.687,2.088,2.062,2.088h.925c1.374,0,2.062-.714,2.062-2.088M369.555,10.199c0,.423-.211.634-.634.634h-.714V2.613h.714c.423,0,.634.185.634.634v6.952ZM371.273,10.278V3.168c0-1.454-.581-2.062-2.061-2.062h-2.723v18.502h1.718v-7.268h1.005c1.374,0,2.061-.688,2.061-2.062M372.093,19.608h3.806v-1.533h-2.088v-7.057h1.982v-1.533h-1.982V2.639h2.061v-1.533h-3.779v18.502ZM373.996,38.881h-1.48l.74-10.361.74,10.361ZM374.313,43.163h1.665l-1.533-18.529h-2.247l-1.559,18.529h1.586l.185-2.802h1.691l.212,2.802ZM379.916,19.608h1.824V1.106h-1.507l.027,8.379.158,4.441-1.771-12.82h-1.982v18.502h1.533l-.026-8.458-.159-5.207,1.903,13.665ZM381.74,43.163v-18.502h-1.507l.027,8.379.158,4.44-1.771-12.819h-1.982v18.502h1.533l-.026-8.458-.159-5.207,1.903,13.665h1.824Z"/>
    <path class="st2" d="M358.505,66.789h10.947v-2.374h-13.697v6.6c2.615-.181,5.668-.241,7.292-.241,2.226,0,3.339.06,3.775.497.166.165.211.346.211.541,0,.196-.045.347-.211.512-.526.527-1.985.677-4.316.677-2.693,0-5.399-.301-6.871-.888v2.451c1.562.481,4.073.781,6.886.781,4.346,0,5.834-.721,6.586-1.472.511-.511.781-1.368.781-2.166,0-1.038-.27-1.714-.706-2.15-.767-.766-2.134-1.142-6.06-1.142-1.654,0-3.625.135-4.617.24v-1.866ZM337.469,67.902c2.09-.887,4.451-1.489,7.262-1.489,1.505,0,3.099.151,3.52.572.105.105.166.225.166.421,0,.165-.061.301-.151.391-.18.18-.346.286-2.902.572-6.647.722-8.616,2.421-8.887,6.57h14.629v-2.419l-11.05.045c.24-.586.857-1.384,4.676-1.85,4.241-.511,5.157-.737,5.864-1.444.39-.391.661-1.008.661-1.895,0-.843-.241-1.474-.797-2.03-.721-.721-2.54-1.322-5.743-1.322-3.037,0-5.368.496-7.233,1.262l-.015,2.616ZM329.724,69.677c0,1.128-.346,1.789-.797,2.24-.617.617-1.91,1.143-4.917,1.143s-4.3-.526-4.917-1.143c-.451-.451-.796-1.112-.796-2.24s.345-1.789.796-2.24c.617-.616,1.91-1.143,4.917-1.143s4.3.527,4.917,1.143c.451.451.797,1.113.797,2.24M315.244,69.677c0,1.504.421,2.767,1.414,3.759,1.022,1.022,2.902,1.894,7.352,1.894s6.33-.872,7.353-1.894c.992-.992,1.413-2.255,1.413-3.759s-.421-2.766-1.413-3.759c-1.023-1.022-2.902-1.894-7.353-1.894s-6.33.872-7.352,1.894c-.993.993-1.414,2.256-1.414,3.759M297.5,67.902c2.09-.887,4.451-1.489,7.262-1.489,1.505,0,3.099.151,3.52.572.105.105.165.225.165.421,0,.165-.06.301-.15.391-.18.18-.346.286-2.902.572-6.647.722-8.616,2.421-8.887,6.57h14.629v-2.419l-11.05.045c.24-.586.857-1.384,4.676-1.85,4.241-.511,5.157-.737,5.864-1.444.39-.391.661-1.008.661-1.895,0-.843-.241-1.474-.797-2.03-.721-.721-2.54-1.322-5.743-1.322-3.037,0-5.368.496-7.233,1.262l-.015,2.616ZM280.763,77.496l3.939-4.976h-3.127l-3.548,4.976h2.736ZM264.462,66.789h10.947v-2.374h-13.697v6.6c2.615-.181,5.668-.241,7.292-.241,2.226,0,3.339.06,3.775.497.166.165.211.346.211.541,0,.196-.045.347-.211.512-.526.527-1.985.677-4.316.677-2.693,0-5.399-.301-6.871-.888v2.451c1.562.481,4.073.781,6.886.781,4.346,0,5.834-.721,6.586-1.472.511-.511.781-1.368.781-2.166,0-1.038-.27-1.714-.706-2.15-.767-.766-2.134-1.142-6.06-1.142-1.654,0-3.624.135-4.617.24v-1.866ZM243.426,67.902c2.09-.887,4.451-1.489,7.262-1.489,1.505,0,3.099.151,3.52.572.105.105.166.225.166.421,0,.165-.061.301-.151.391-.18.18-.346.286-2.902.572-6.646.722-8.616,2.421-8.887,6.57h14.629v-2.419l-11.05.045c.24-.586.857-1.384,4.676-1.85,4.241-.511,5.157-.737,5.864-1.444.39-.391.661-1.008.661-1.895,0-.843-.241-1.474-.797-2.03-.721-.721-2.54-1.322-5.743-1.322-3.037,0-5.368.496-7.233,1.262l-.015,2.616ZM238.372,68.174h-8.464v2.374h8.464v-2.374ZM211.652,67.902c2.09-.887,4.451-1.489,7.263-1.489,1.504,0,3.098.151,3.519.572.106.105.166.225.166.421,0,.165-.06.301-.151.391-.18.18-.345.286-2.902.572-6.646.722-8.616,2.421-8.887,6.57h14.63v-2.419l-11.051.045c.241-.586.857-1.384,4.677-1.85,4.24-.511,5.156-.737,5.863-1.444.39-.391.661-1.008.661-1.895,0-.843-.24-1.474-.796-2.03-.722-.721-2.54-1.322-5.743-1.322-3.038,0-5.369.496-7.233,1.262l-.016,2.616ZM193.157,67.902c2.089-.887,4.45-1.489,7.262-1.489,1.504,0,3.098.151,3.519.572.106.105.166.225.166.421,0,.165-.06.301-.151.391-.18.18-.345.286-2.902.572-6.646.722-8.616,2.421-8.887,6.57h14.63v-2.419l-11.051.045c.241-.586.857-1.384,4.677-1.85,4.24-.511,5.157-.737,5.863-1.444.39-.391.661-1.008.661-1.895,0-.843-.24-1.474-.796-2.03-.722-.721-2.54-1.322-5.743-1.322-3.038,0-5.369.496-7.233,1.262l-.015,2.616ZM176.631,67.225c.225.226.316.482.316.828,0,.301-.106.602-.301.798-.391.391-1.203.496-2.587.496h-6.137v-2.513h6.137c1.534,0,2.241.06,2.572.391M179.952,67.963c0-.828-.18-1.745-.841-2.406-.767-.766-1.834-1.142-5.007-1.142h-9.172v10.524h2.99v-3.383h3.761l5.068,3.383h4.374v-.045l-5.306-3.383c1.804-.135,2.645-.526,3.247-1.127.721-.721.886-1.624.886-2.421M148.93,68.505v-1.701h11.233v-2.389h-14.163v10.524h14.163v-2.389h-11.233v-1.806h10.948v-2.239h-10.948ZM136.346,66.654c.917,0,1.594.075,1.91.391.165.166.21.361.21.572,0,.286-.09.467-.21.587-.316.316-.993.361-1.895.361h-6.829v-1.911h6.814ZM129.532,72.731v-2.062h6.783c.993,0,1.73.045,2.076.391.12.12.226.316.226.632,0,.226-.046.437-.226.617-.346.346-1.083.422-2.076.422h-6.783ZM126.707,74.939h9.353c3.052,0,4.18-.496,4.871-1.187.511-.511.661-1.142.661-1.774,0-1.4-.856-2.091-2.54-2.391,1.744-.361,2.39-1.187,2.39-2.407,0-.662-.166-1.232-.646-1.713-.707-.706-1.729-1.052-4.631-1.052h-9.458v10.524ZM116.872,64.415l-5.624,8.752-5.655-8.752h-4.825v10.524h2.84v-8.481l5.625,8.481h3.91l5.564-8.436.045,8.436h2.961v-10.524h-4.841ZM84.766,68.505v-1.701h11.233v-2.389h-14.163v10.524h14.163v-2.389h-11.233v-1.806h10.947v-2.239h-10.947ZM78.375,64.415h-3.473l-5.563,8.286-5.548-8.286h-3.624l7.262,10.524h3.684l7.262-10.524ZM54.933,69.677c0,1.128-.346,1.789-.797,2.24-.617.617-1.91,1.143-4.917,1.143s-4.3-.526-4.917-1.143c-.451-.451-.797-1.112-.797-2.24s.346-1.789.797-2.24c.617-.616,1.91-1.143,4.917-1.143s4.3.527,4.917,1.143c.451.451.797,1.113.797,2.24M40.453,69.677c0,1.504.421,2.767,1.414,3.759,1.022,1.022,2.901,1.894,7.352,1.894s6.33-.872,7.352-1.894c.993-.992,1.414-2.255,1.414-3.759s-.421-2.766-1.414-3.759c-1.022-1.022-2.901-1.894-7.352-1.894s-6.33.872-7.352,1.894c-.993.993-1.414,2.256-1.414,3.759M24.437,64.415h-4.54v10.524h2.901v-8.285l8.873,8.285h4.39v-10.524h-2.901v8.135l-8.723-8.135Z"/>
    <path class="st2" d="M350.582,88.632l3.68,5.212h-7.387l3.707-5.212ZM349.604,87.793l-6.961,9.702h1.654l1.71-2.426h9.124l1.723,2.426h1.736l-6.96-9.702h-2.026ZM338.562,87.848h-1.487v9.647h1.487v-9.647ZM330.155,89.666c.248.248.317.552.317.869,0,.358-.096.648-.317.855-.413.428-1.061.634-3.171.634h-6.672v-2.965h6.672c1.93,0,2.716.152,3.171.607M330.307,93.856c.248.249.331.538.331.911,0,.331-.069.648-.359.937-.469.469-1.296.607-3.171.607h-6.796v-3.103h6.672c1.848,0,2.84.166,3.323.648M318.838,97.495h8.201c2.523,0,3.819-.33,4.521-1.046.468-.455.606-1.062.606-1.6,0-1.296-.826-1.985-2.493-2.26,1.612-.303,2.341-1.034,2.341-2.22,0-.593-.124-1.089-.578-1.544-.716-.716-1.819-.977-4.341-.977h-8.257v9.647ZM302.199,89.087h6.452c1.972,0,2.689.193,3.102.606.331.318.469.731.469,1.269,0,.552-.138.938-.441,1.241-.414.414-1.2.676-3.13.676h-6.452v-3.792ZM300.712,87.848v9.647h1.487v-3.418h4.784l5.611,3.418h2.287v-.041l-5.637-3.377c2.261-.069,3.129-.51,3.708-1.088.55-.537.757-1.255.757-2.068s-.207-1.531-.73-2.055c-.661-.66-1.557-1.018-4.341-1.018h-7.926ZM284.997,92.011v-2.924h10.917v-1.239h-12.391v9.647h12.391v-1.239h-10.917v-3.034h10.724v-1.211h-10.724ZM272.537,96.518c-2.454,0-5.335-.551-6.823-1.213v1.296c1.529.633,4.065,1.087,6.823,1.087,3.75,0,5.018-.592,5.637-1.225.482-.483.647-1.117.647-1.779,0-.62-.165-1.199-.564-1.585-.62-.621-1.653-.938-5.803-1.145-3.419-.165-4.288-.372-4.66-.744-.179-.179-.276-.441-.276-.786s.097-.648.317-.869c.414-.413,1.365-.73,4.192-.73,2.192,0,4.522.441,6.023,1.02v-1.296c-1.281-.467-3.376-.88-6.023-.88-3.309,0-4.701.468-5.362,1.128-.482.483-.634,1.103-.634,1.765,0,.607.152,1.144.537,1.517.62.62,1.86.951,5.707,1.144,3.722.179,4.412.386,4.756.731.235.234.303.537.303.868,0,.345-.096.662-.358.924-.4.4-1.323.772-4.439.772M248.636,92.506c0,.51.11.882.386,1.157.275.276.785.51,1.86.51,1.088,0,1.598-.234,1.874-.51.275-.275.386-.647.386-1.157s-.111-.882-.386-1.157c-.276-.276-.786-.51-1.874-.51-1.075,0-1.585.234-1.86.51-.276.275-.386.647-.386,1.157M224.222,89.087h6.453c1.971,0,2.688.193,3.102.606.33.318.468.731.468,1.269,0,.552-.138.938-.441,1.241-.413.414-1.199.676-3.129.676h-6.453v-3.792ZM222.735,87.848v9.647h1.487v-3.418h4.784l5.611,3.418h2.287v-.041l-5.637-3.377c2.261-.069,3.13-.51,3.708-1.088.551-.537.757-1.255.757-2.068s-.206-1.531-.729-2.055c-.661-.66-1.557-1.018-4.342-1.018h-7.926ZM217.179,87.848h-1.487v9.647h1.487v-9.647ZM203.616,88.632l3.68,5.212h-7.387l3.707-5.212ZM202.638,87.793l-6.961,9.702h1.654l1.709-2.426h9.124l1.723,2.426h1.737l-6.96-9.702h-2.026ZM182.76,92.19v-3.103h10.614v-1.239h-12.101v9.647h1.487v-4.094h10.421v-1.211h-10.421ZM157.976,92.011v-2.924h10.917v-1.239h-12.39v9.647h12.39v-1.239h-10.917v-3.034h10.724v-1.211h-10.724ZM139.616,96.256v-7.169h5.211c2.619,0,3.984.496,4.618,1.13.579.565.896,1.338.896,2.454s-.317,1.889-.896,2.455c-.634.634-1.999,1.13-4.618,1.13h-5.211ZM151.842,92.671c0-1.309-.385-2.412-1.253-3.281-.785-.785-2.371-1.542-5.735-1.542h-6.725v9.647h6.725c3.364,0,4.95-.757,5.735-1.542.868-.869,1.253-1.972,1.253-3.282M126.232,88.632l3.68,5.212h-7.388l3.708-5.212ZM125.253,87.793l-6.96,9.702h1.654l1.709-2.426h9.124l1.723,2.426h1.737l-6.961-9.702h-2.026ZM103.129,89.087h6.452c1.971,0,2.688.193,3.102.606.331.318.469.731.469,1.269,0,.552-.138.938-.442,1.241-.413.414-1.199.676-3.129.676h-6.452v-3.792ZM101.642,87.848v9.647h1.487v-3.418h4.784l5.61,3.418h2.287v-.041l-5.636-3.377c2.261-.069,3.129-.51,3.707-1.088.551-.537.758-1.255.758-2.068s-.207-1.531-.73-2.055c-.661-.66-1.557-1.018-4.342-1.018h-7.925ZM88.78,92.369v1.211h6.576c0,.593-.082,1.255-.634,1.821-.717.717-2.302,1.117-4.797,1.117-3.144,0-4.453-.593-5.17-1.296-.566-.58-.91-1.393-.91-2.55,0-1.13.344-1.958.923-2.551.731-.717,2.11-1.269,5.019-1.269,2.647,0,4.977.538,6.354,1.269v-1.393c-1.171-.564-3.445-1.101-6.354-1.101-3.599,0-5.294.799-6.204,1.708-.84.841-1.239,2.013-1.239,3.337,0,1.377.441,2.522,1.239,3.336.91.909,2.509,1.708,6.328,1.708,3.212,0,5.018-.579,5.968-1.529.744-.745,1.006-1.683,1.006-2.937v-.881h-8.105ZM68.889,96.242v-8.394h-1.487v9.647h11.77v-1.253h-10.283ZM51.686,92.011v-2.924h10.917v-1.239h-12.39v9.647h12.39v-1.239h-10.917v-3.034h10.725v-1.211h-10.725ZM43.473,89.666c.248.248.317.552.317.869,0,.358-.097.648-.317.855-.414.428-1.062.634-3.171.634h-6.673v-2.965h6.673c1.93,0,2.716.152,3.171.607M43.624,93.856c.249.249.331.538.331.911,0,.331-.069.648-.358.937-.469.469-1.296.607-3.171.607h-6.797v-3.103h6.673c1.847,0,2.84.166,3.322.648M32.156,97.495h8.201c2.523,0,3.819-.33,4.521-1.046.468-.455.606-1.062.606-1.6,0-1.296-.827-1.985-2.494-2.26,1.612-.303,2.342-1.034,2.342-2.22,0-.593-.124-1.089-.578-1.544-.716-.716-1.819-.977-4.342-.977h-8.256v9.647Z"/>
  </g>
</svg>