<?xml version="1.0" encoding="UTF-8"?>
<svg id="ICONS" xmlns="http://www.w3.org/2000/svg" width="800" height="800" xmlns:xlink="http://www.w3.org/1999/xlink" version="1.1" viewBox="0 0 800 800">
  <!-- Generator: Adobe Illustrator 29.5.0, SVG Export Plug-In . SVG Version: 2.1.0 Build 137)  -->
  <defs>
    <style>
      .st0 {
        fill: url(#linear-gradient);
      }
    </style>
    <linearGradient id="linear-gradient" x1="400" y1="800" x2="400" y2="0" gradientUnits="userSpaceOnUse">
      <stop offset="0" stop-color="#8b3fdf"/>
      <stop offset=".065" stop-color="#9935c6"/>
      <stop offset=".275" stop-color="#c41879"/>
      <stop offset=".426" stop-color="#e00649"/>
      <stop offset=".5" stop-color="#eb0037"/>
      <stop offset=".558" stop-color="#ec152f"/>
      <stop offset=".772" stop-color="#f36216"/>
      <stop offset=".924" stop-color="#f89206"/>
      <stop offset="1" stop-color="#faa500"/>
    </linearGradient>
  </defs>
  <path class="st0" d="M475.647,308.682c-14.447-11.412-30.965-24.776-47.765-40.212,57.2-47.2,115.341-107.412,129.365-221.318h82.329c-8.235,134.518-93.812,204.894-163.929,261.529M679.482,728.329h-220.376c-22.988-102.894-41.929-242.8-41.929-300.118,0-28.141,22.965-49.929,56.824-73.835,77.741,68.871,202.565,181.788,205.482,373.953M351.906,331.2c.941-.871,1.882-1.741,2.776-2.588,13.671-12.706,29.129-24.965,45.318-37.765,16.165,12.8,31.647,25.059,45.294,37.765.918.847,1.835,1.718,2.776,2.588-19.459,16.329-36.353,32.024-48.071,48.494-11.718-16.471-28.612-32.165-48.094-48.494M340.894,728.329H120.494c2.918-192.165,127.741-305.082,205.482-373.953,33.882,23.906,56.847,45.694,56.847,73.835,0,57.318-18.965,197.224-41.929,300.118M160.4,47.153h82.329c14.047,113.906,72.188,174.118,129.365,221.318-16.8,15.435-33.294,28.8-47.765,40.212-70.118-56.635-155.671-127.012-163.929-261.529M484.612,47.153c.235,81.765-39.671,145.6-84.612,193.741-44.941-48.141-84.847-111.976-84.612-193.741h169.224ZM745.318,0H54.659c28.188,194.988,151.671,275.059,238.824,332.494C192.165,409.059,33.576,522.282,0,800h800c-33.6-277.718-192.165-390.941-293.506-467.506C593.671,275.059,717.129,194.988,745.318,0"/>
</svg>